<svg id="Livello_1" data-name="Livello 1" xmlns="http://www.w3.org/2000/svg" viewBox="0 0 1061.54 1055"><path d="M442.54,663.58l-13.31-84.25,13.17-2.09,11,69.23,37.7-6-9.94-62.88,12.68-2,9.95,62.9,41.86-6.63-11.25-71.23,13.85-2.19,13.63,86.25Z" transform="translate(-429.23 -12.5)" fill="#1d1d1b"/><path d="M429.57,544.53l.23-13.68,120.71,2-.21,13.67Z" transform="translate(-429.23 -12.5)" fill="#1d1d1b"/><path d="M430.6,506.65l1-13.65,16.84,1.25-1,13.65ZM464,509.14l1-13.64,87.08,6.5-1,13.65Z" transform="translate(-429.23 -12.5)" fill="#1d1d1b"/><path d="M523.65,486.63l2.84-13.73c15.26,1.25,21.45-7.82,24.07-20.56,2.91-14-2-21.11-10-22.75-9.59-2-13.44,4.12-20,19.16-7,16.15-13.54,30.48-32.23,26.62-14.22-2.93-21.23-15.77-17.14-35.61,4.38-21.18,16.63-29.51,33.74-28.06l-2.83,13.74c-11.52-1-17.75,4.09-20.38,16.84-2.53,12.23,1.9,18.32,8.68,19.73,9.27,1.9,12.8-6,18.81-20.09,7-16.5,13.81-30.1,33.5-26,17.2,3.56,23.07,19.43,19,39.12C556.89,478.49,543.11,489.27,523.65,486.63Z" transform="translate(-429.23 -12.5)" fill="#1d1d1b"/><path d="M578.29,359l-.07.17c4.22,7.43,7.32,18.42,1.59,32.14-6.4,15.27-18.57,24.27-33.85,17.89-19-7.95-16.65-24.54-11.37-45.94,3-12.1,5.27-20.5-3.45-24.14-9-3.79-16.92.61-21.74,12.14-5.47,13.1-2.59,22,9.36,27.53l-5.07,12.16c-15.4-7-22.79-22.16-13.86-43.5,7.17-17.14,18.83-27.09,38-19.09l38.33,16c6.55,2.74,10.78,2.68,12.15-5l.21-.48,9.19,3.85a18.9,18.9,0,0,1-1.62,7.38C592.63,358.38,587.07,361.18,578.29,359Zm-18.42-8.06-13.7-5.72c.88,5.3-.16,13.47-1.77,20.85-2.94,13.61-5,24.64,6.85,29.6,10.76,4.49,16.61-2.95,20.07-11.21C578.35,367.6,569.22,354.83,559.87,350.91Z" transform="translate(-429.23 -12.5)" fill="#1d1d1b"/><path d="M565.61,245.7c21.38-9.45,29-5.69,32.65,2.77,6.64,15.29-29.83,41.19-10.9,55,12.5,9.08,29.21,5.12,44.16-15.46l28.42-39.37,3.37,2.45-33.52,46.13c-29.52,40.62-50.85,35.6-64,26-12.13-8.81-21-26.55-2.61-51.88,12.27-16.88,24.61-18.33,27.32-22.05,1.53-2.11.21-5.71-5-5.29-6,.49-16,8-33.41,24.91-20.14,19.52-45.87-2.32-29.59-24.73l45.41-62.49,3.23,2.37-27.55,37.55C529.32,241.1,544.23,255.17,565.61,245.7Z" transform="translate(-429.23 -12.5)" fill="#1d1d1b"/><path d="M591.1,156.34l65.79-54.28,8.49,10.28L611.31,157l24.3,29.44,49.11-40.53,8.16,9.9-49.1,40.53,27,32.7,55.62-45.9,8.92,10.81L668,249.48Z" transform="translate(-429.23 -12.5)" fill="#1d1d1b"/><path d="M685.3,85.83l11.78-6.94,61.28,104-11.77,6.94Z" transform="translate(-429.23 -12.5)" fill="#1d1d1b"/><path d="M720.31,66.24l12.29-6,7.45,15.17-12.29,6Zm14.76,30,12.28-6,38.53,78.39-12.29,6Z" transform="translate(-429.23 -12.5)" fill="#1d1d1b"/><path d="M784.33,136.58l13.26-4.51c6.65,13.78,17.61,14.51,29.91,10.33,13.59-4.62,17.18-12.43,14.57-20.1-3.15-9.27-10.36-9.5-26.64-7.53C798,117,782.3,118.54,776.16,100.48c-4.68-13.74,2.84-26.29,22-32.81,20.46-7,33.84-.62,41.25,14.87L826.16,87c-5-10.43-12.52-13.22-24.83-9-11.82,4-14.82,10.92-12.6,17.48,3,9,11.64,8,26.84,6,17.76-2.29,32.92-3.34,39.39,15.68,5.65,16.62-5.06,29.71-24.08,36.18C808.18,161.09,791.92,154.69,784.33,136.58Z" transform="translate(-429.23 -12.5)" fill="#1d1d1b"/><path d="M922.79,118.9l-.17,0c-4.29,7.41-12.21,15.63-27,17.62-16.41,2.21-30.33-3.76-32.54-20.16C860.36,96,875.88,89.6,897,83.34c12-3.5,20.36-5.81,19.1-15.2-1.32-9.7-9.1-14.28-21.49-12.6-14.06,1.89-20.28,8.86-19,22l-13.07,1.76c-1.75-16.81,7.61-30.86,30.55-33.94,18.41-2.5,32.9,2.54,35.67,23.14l5.55,41.19c.95,7,3.15,10.65,10.46,8l.5-.06,1.33,9.87a18.89,18.89,0,0,1-7.18,2.34C930.55,131,925.32,127.59,922.79,118.9Zm-2.35-20-2-14.73c-4.13,3.45-11.71,6.68-18.9,9-13.22,4.35-23.78,8.16-22.07,20.88,1.56,11.56,10.95,12.85,19.82,11.65C915.37,123.31,921.79,109,920.44,98.94Z" transform="translate(-429.23 -12.5)" fill="#1d1d1b"/><path d="M1014.08,50.64c19,13.6,19.6,22.06,14.18,29.51-9.81,13.47-50.61-4.79-52.86,18.49-1.48,15.36,10.42,27.74,35.72,30.18l48.31,4.49-.41,4.14L1002.31,132c-50-4.81-56.45-25.73-54.88-41.94,1.43-14.92,12.2-31.57,43.34-28.57,20.75,2,28.27,11.89,32.84,12.33,2.6.26,5-2.7,2-7-3.47-4.92-15-9.7-38.39-16.13-27-7.46-21.25-40.68,6.28-38l76.84,7.4-.39,4-46.32-4.68C999.63,17.06,995.09,37,1014.08,50.64Z" transform="translate(-429.23 -12.5)" fill="#1d1d1b"/><path d="M1104,27.16l80.11,29.36-4.59,12.53-65.83-24.13-13.14,35.86,59.8,21.91-4.41,12.06L1096.1,92.84l-14.59,39.81,67.75,24.84-4.83,13.15-82-30Z" transform="translate(-429.23 -12.5)" fill="#1d1d1b"/><path d="M1212.91,73l11.94,6.68-59,105.43-11.95-6.69Z" transform="translate(-429.23 -12.5)" fill="#1d1d1b"/><path d="M1228.17,120.87l11.42,7.54-48.15,72.82-11.4-7.54ZM1246.61,93l11.4,7.54-9.31,14.09-11.4-7.54Z" transform="translate(-429.23 -12.5)" fill="#1d1d1b"/><path d="M1218.76,184l10.61,9.17c-8.54,12.72-3.63,22.56,6.21,31.06,10.87,9.4,19.44,8.53,24.73,2.39,6.42-7.42,3-13.76-7-26.81-10.73-13.95-20-26.69-7.56-41.14,9.5-11,24.13-10.87,39.48,2.39,16.36,14.14,17.68,28.9,8,43.14L1282.69,195c6.5-9.58,5.08-17.51-4.77-26-9.46-8.19-16.94-7.28-21.47-2-6.19,7.17-1,14.1,8.38,26.23,11,14.18,19.56,26.73,6.42,41.94-11.5,13.3-28.23,10.69-43.44-2.45C1209.65,217,1207,199.7,1218.76,184Z" transform="translate(-429.23 -12.5)" fill="#1d1d1b"/><path d="M1304,294.2l-.1-.12c-8.55.06-19.65-2.59-28.86-14.26-10.23-13-12.17-28,.82-38.26,16.19-12.75,29.54-2.62,45.67,12.4,9.08,8.53,15.35,14.57,22.78,8.71,7.68-6.06,7.68-15.07,0-24.89-8.79-11.14-17.94-13-28.61-5.2l-8.14-10.35c13.58-10,30.42-9.13,44.74,9,11.49,14.6,14.51,29.62-1.81,42.48l-32.63,25.71c-5.57,4.39-7.58,8.11-1.54,13l.3.4-7.82,6.16a18.7,18.7,0,0,1-5.67-5C1297.54,307,1297.79,300.8,1304,294.2ZM1320,282l11.67-9.19c-5.07-1.81-11.71-6.68-17.37-11.68-10.45-9.18-19.11-16.34-29.18-8.4-9.16,7.21-5.5,15.95,0,23C1296.42,290.06,1312,288.31,1320,282Z" transform="translate(-429.23 -12.5)" fill="#1d1d1b"/><path d="M1409.15,338c-2.11,23.3-9.09,28.12-18.27,27.22-16.6-1.64-21.56-46.12-42.79-36.24-14,6.52-18.65,23.08-7.91,46.15l20.64,44-3.79,1.75L1333,369.1c-21.21-45.56-6.45-61.79,8.34-68.67,13.61-6.34,33.44-5.48,46.66,22.9,8.81,18.94,4.08,30.45,6,34.63,1.1,2.37,4.87,3,7-1.84,2.49-5.49.75-17.88-5.55-41.33-7.29-27.09,24.3-39,36-13.87L1464.11,371l-3.64,1.69L1441,330.33C1430.8,308.44,1411.26,314.65,1409.15,338Z" transform="translate(-429.23 -12.5)" fill="#1d1d1b"/><path d="M1474.86,403.76l15.25,83.95L1477,490.09l-12.53-69-37.57,6.83,11.38,62.67-12.63,2.29-11.38-62.67-41.72,7.57,12.89,71-13.8,2.5L1356,425.33Z" transform="translate(-429.23 -12.5)" fill="#1d1d1b"/><path d="M1490.46,520.88l.31,13.67-120.71,2.71-.3-13.67Z" transform="translate(-429.23 -12.5)" fill="#1d1d1b"/><path d="M1457,558.38l-.69,13.66-87.18-4.44.69-13.67Zm33.39,1.7-.69,13.66-16.87-.86.69-13.65Z" transform="translate(-429.23 -12.5)" fill="#1d1d1b"/><path d="M1397.86,582.5l-2.5,13.79c-15.3-.88-21.26,8.34-23.58,21.14-2.56,14.13,2.53,21.06,10.51,22.52,9.64,1.74,13.33-4.45,19.52-19.64,6.57-16.32,12.81-30.82,31.6-27.4,14.29,2.59,21.61,15.25,18,35.2-3.86,21.28-15.91,29.91-33.05,28.86l2.5-13.8c11.55.72,17.65-4.53,20-17.33,2.22-12.3-2.36-18.28-9.17-19.52-9.31-1.69-12.65,6.29-18.33,20.55-6.62,16.65-13.08,30.42-32.86,26.82-17.29-3.13-23.53-18.86-19.93-38.64C1364.82,591.45,1378.34,580.34,1397.86,582.5Z" transform="translate(-429.23 -12.5)" fill="#1d1d1b"/><path d="M1346.15,711.61l.07-.16c-4.39-7.34-7.73-18.26-2.32-32.09,6-15.41,18-24.69,33.41-18.66,19.2,7.51,17.21,24.14,12.42,45.65-2.76,12.16-4.8,20.61,4,24,9.12,3.58,16.89-1,21.46-12.63,5.16-13.21,2.08-22-10-27.3l4.8-12.26c15.53,6.62,23.27,21.62,14.83,43.15-6.77,17.3-18.2,27.52-37.53,19.95l-38.68-15.14c-6.61-2.58-10.84-2.43-12,5.26l-.2.47-9.27-3.63a18.81,18.81,0,0,1,1.45-7.41C1331.83,712.53,1337.33,709.6,1346.15,711.61Zm18.59,7.63,13.84,5.42c-1-5.29-.17-13.49,1.29-20.89,2.62-13.66,4.42-24.74-7.53-29.42-10.84-4.25-16.53,3.32-19.8,11.66C1345.9,703,1355.31,715.54,1364.74,719.24Z" transform="translate(-429.23 -12.5)" fill="#1d1d1b"/><path d="M1361.28,824.76c-21.18,9.92-28.86,6.33-32.72-2-7-15.15,28.93-41.86,9.7-55.2-12.7-8.81-29.33-4.46-43.83,16.44l-27.54,40-3.43-2.38L1296,774.7c28.63-41.28,50.08-36.73,63.48-27.43,12.34,8.55,21.61,26.1,3.76,51.82-11.9,17.16-24.21,18.89-26.84,22.68-1.49,2.14-.08,5.7,5.15,5.16,6-.63,15.8-8.37,32.86-25.64,19.72-20,45.92,1.32,30.14,24.08l-44,63.49-3.28-2.29,26.72-38.17C1397.67,828.57,1382.45,814.83,1361.28,824.76Z" transform="translate(-429.23 -12.5)" fill="#1d1d1b"/><path d="M1338.11,914.46l-64.58,55.79-8.73-10.11,53.07-45.84-25-28.89-48.21,41.64-8.4-9.72,48.21-41.64-27.74-32.1-54.6,47.17L1193,880.15,1259.11,823Z" transform="translate(-429.23 -12.5)" fill="#1d1d1b"/><path d="M1245.39,987.19l-11.62,7.21-63.71-102.56,11.61-7.23Z" transform="translate(-429.23 -12.5)" fill="#1d1d1b"/><path d="M1195.33,977.84l-12.13,6.31-40.3-77.47,12.14-6.31Zm15.43,29.67-12.14,6.31-7.79-15,12.13-6.32Z" transform="translate(-429.23 -12.5)" fill="#1d1d1b"/><path d="M1145.31,938.66l-13.17,4.84c-7-13.65-18-14.12-30.17-9.64-13.47,4.93-16.88,12.85-14.09,20.45,3.38,9.21,10.59,9.26,26.83,6.91,17.4-2.6,33-4.55,39.63,13.36,5,13.64-2.22,26.37-21.26,33.35-20.3,7.44-33.84,1.43-41.62-13.9l13.17-4.82c5.22,10.32,12.83,12.93,25,8.45,11.74-4.31,14.58-11.29,12.19-17.78-3.25-8.89-11.82-7.73-27-5.41-17.73,2.72-32.86,4.13-39.78-14.75-6-16.5,4.35-29.85,23.23-36.77C1120.87,914.7,1137.29,920.74,1145.31,938.66Z" transform="translate(-429.23 -12.5)" fill="#1d1d1b"/><path d="M1007.22,959.51l.17,0c4.12-7.49,11.85-15.91,26.53-18.22,16.36-2.58,30.41,3,33,19.41,3.22,20.36-12.13,27.06-33.13,33.79-11.89,3.76-20.22,6.27-18.73,15.62,1.53,9.68,9.41,14.08,21.75,12.12,14-2.21,20.07-9.33,18.51-22.43l13-2c2.14,16.75-6.9,31-29.75,34.62-18.35,2.91-33-1.8-36.19-22.32l-6.5-41c-1.1-7-3.37-10.57-10.62-7.72l-.5.07-1.55-9.83a18.63,18.63,0,0,1,7.12-2.49C999.19,947.6,1004.49,950.87,1007.22,959.51Zm2.8,19.89,2.33,14.68c4-3.54,11.55-7,18.68-9.45,13.12-4.63,23.59-8.68,21.59-21.37-1.82-11.5-11.22-12.58-20.07-11.18C1014.54,954.93,1008.45,969.4,1010,979.4Z" transform="translate(-429.23 -12.5)" fill="#1d1d1b"/><path d="M918,1029.92c-19.31-13.17-20.13-21.59-14.88-29.18,9.48-13.7,50.73,3.6,52.42-19.74,1.11-15.41-11.08-27.5-36.44-29.33l-48.42-3.35.3-4.16,56.85,4.12c50.08,3.62,57.07,24.38,55.89,40.64-1.08,15-11.45,31.86-42.67,29.6-20.8-1.51-28.55-11.22-33.15-11.55-2.6-.19-5,2.83-1.82,7,3.58,4.83,15.24,9.34,38.77,15.23,27.2,6.8,22.23,40.16-5.37,38.16l-77-5.57.28-4,46.44,3.57C933.21,1063.16,937.29,1043.08,918,1029.92Z" transform="translate(-429.23 -12.5)" fill="#1d1d1b"/><path d="M828.33,1055.3l-80.72-27.45,4.3-12.62,66.32,22.56,12.29-36.13-60.26-20.48L774.4,969l60.25,20.49,13.64-40.13L780,926.2l4.51-13.28L867.18,941Z" transform="translate(-429.23 -12.5)" fill="#1d1d1b"/><path d="M718.17,1012l-12.08-6.42,56.57-106.71,12.08,6.41Z" transform="translate(-429.23 -12.5)" fill="#1d1d1b"/><path d="M684,992.84l-11.59-7.27,9-14.31L693,978.55Zm17.81-28.32-11.6-7.28,46.48-74,11.6,7.28Z" transform="translate(-429.23 -12.5)" fill="#1d1d1b"/><path d="M709.75,901.12l-10.82-8.92c8.25-12.91,3.11-22.62-6.92-30.9-11.07-9.13-19.6-8.08-24.77-1.83-6.24,7.56-2.63,13.81,7.6,26.64,11,13.69,20.62,26.21,8.48,40.93-9.25,11.2-23.86,11.41-39.5-1.5-16.68-13.76-18.32-28.47-9-42.92l10.82,8.92c-6.28,9.72-4.68,17.61,5.36,25.88,9.63,8,17.08,6.88,21.49,1.54,6-7.29.69-14.11-9-26-11.29-13.91-20.15-26.26-7.37-41.76,11.18-13.56,28-11.32,43.45,1.47C718.08,867.93,721.17,885.15,709.75,901.12Z" transform="translate(-429.23 -12.5)" fill="#1d1d1b"/><path d="M622,792.85l.11.14c8.55-.26,19.71,2.13,29.17,13.6,10.54,12.76,12.81,27.73.05,38.27-15.89,13.11-29.46,3.3-45.94-11.36-9.27-8.33-15.66-14.22-23-8.21-7.55,6.24-7.34,15.26.62,24.9,9,10.95,18.23,12.54,28.72,4.55l8.39,10.17c-13.35,10.36-30.22,9.82-44.95-8-11.82-14.34-15.19-29.28.83-42.51l32-26.44c5.48-4.51,7.41-8.3,1.26-13.08l-.32-.38,7.68-6.35A18.67,18.67,0,0,1,622.5,773C628.19,779.89,628.08,786.12,622,792.85Zm-15.72,12.54-11.45,9.46c5.11,1.69,11.85,6.42,17.63,11.29,10.67,8.94,19.48,15.89,29.37,7.73,9-7.41,5.14-16.07-.56-23C629.69,796.83,614.13,798.94,606.31,805.39Z" transform="translate(-429.23 -12.5)" fill="#1d1d1b"/><path d="M516.06,751.6c1.59-23.31,8.46-28.28,17.65-27.59,16.61,1.25,22.57,45.57,43.55,35.21,13.85-6.82,18.11-23.47,6.86-46.27l-21.61-43.46,3.73-1.84,25.23,51.12c22.21,45,7.84,61.55-6.78,68.78-13.45,6.63-33.28,6.22-47.12-21.83-9.23-18.71-4.78-30.3-6.81-34.43-1.15-2.34-5-2.84-7,2-2.37,5.54-.35,17.86,6.5,41.15,7.89,26.89-23.42,39.5-35.65,14.68l-34.17-69.26,3.59-1.76,20.42,41.85C495.11,781.58,514.49,774.93,516.06,751.6Z" transform="translate(-429.23 -12.5)" fill="#1d1d1b"/></svg>